<svg width="22" height="15" viewBox="0 0 22 15" fill="none" xmlns="http://www.w3.org/2000/svg">
<path d="M21 8.36377C21.5523 8.36377 22 7.91605 22 7.36377C22 6.81148 21.5523 6.36377 21 6.36377L21 8.36377ZM0.292892 6.65666C-0.0976315 7.04719 -0.0976314 7.68035 0.292893 8.07088L6.65686 14.4348C7.04738 14.8254 7.68054 14.8254 8.07107 14.4348C8.46159 14.0443 8.46159 13.4111 8.07107 13.0206L2.41421 7.36377L8.07107 1.70692C8.46159 1.31639 8.46159 0.683227 8.07107 0.292703C7.68054 -0.0978215 7.04738 -0.0978214 6.65685 0.292703L0.292892 6.65666ZM21 6.36377L1 6.36377L1 8.36377L21 8.36377L21 6.36377Z" fill="#3A0CA3"/>
</svg>
