<svg width="20" height="20" viewBox="0 0 20 20" fill="none" xmlns="http://www.w3.org/2000/svg">
<path d="M19.7625 7.6375L10.3875 0.137499C10.2767 0.0487465 10.1389 0.000389099 9.99689 0.000389099C9.85489 0.000389099 9.71712 0.0487465 9.60627 0.137499L0.23127 7.6375C0.130133 7.71864 0.0567341 7.82922 0.0212437 7.95393C-0.0142467 8.07864 -0.0100718 8.2113 0.0331901 8.33354C0.076452 8.45577 0.156659 8.56152 0.262698 8.63614C0.368738 8.71076 0.495359 8.75055 0.62502 8.75H1.87502V19.375C1.87502 19.5408 1.94087 19.6997 2.05808 19.8169C2.17529 19.9342 2.33426 20 2.50002 20H15V18.75H12.5V13.125C12.5 12.9592 12.4342 12.8003 12.317 12.6831C12.1998 12.5658 12.0408 12.5 11.875 12.5H8.12502C7.95926 12.5 7.80029 12.5658 7.68308 12.6831C7.56587 12.8003 7.50002 12.9592 7.50002 13.125V18.75H3.12502V8.75H13.75V7.5H2.40627L10 1.425L17.5938 7.5H17.5C17.3343 7.5 17.1753 7.56585 17.0581 7.68306C16.9409 7.80027 16.875 7.95924 16.875 8.125V11.875H18.125V8.75H19.375C19.5041 8.74926 19.6299 8.70853 19.7349 8.63343C19.84 8.55833 19.9192 8.45254 19.9616 8.33059C20.0041 8.20865 20.0078 8.07654 19.9721 7.95243C19.9365 7.82832 19.8632 7.7183 19.7625 7.6375ZM8.75002 13.75H11.25V18.75H8.75002V13.75Z" fill="white"/>
<path d="M15.625 16.6188L14.8188 15.8125L13.9375 16.6937L15.1875 17.9437C15.3046 18.0602 15.463 18.1255 15.6282 18.1255C15.7933 18.1255 15.9517 18.0602 16.0688 17.9437L19.8188 14.1937L18.9375 13.3125L15.625 16.6188Z" fill="white"/>
</svg>
