<svg width="127" height="50" viewBox="0 0 127 50" fill="none" xmlns="http://www.w3.org/2000/svg">
<g clip-path="url(#clip0_181_2127)">
<circle cx="25.5" cy="25" r="25" fill="#3A0CA3"/>
<path d="M38.2076 22.5466L26.4883 13.1714C26.3497 13.0604 26.1775 13 26 13C25.8225 13 25.6503 13.0604 25.5117 13.1714L13.7924 22.5466C13.666 22.648 13.5742 22.7862 13.5298 22.9421C13.4855 23.098 13.4907 23.2638 13.5448 23.4166C13.5989 23.5694 13.6991 23.7016 13.8317 23.7949C13.9642 23.8882 14.1225 23.9379 14.2846 23.9372H15.8472V37.2187C15.8472 37.4259 15.9295 37.6247 16.076 37.7712C16.2225 37.9177 16.4212 38 16.6285 38H32.2542V36.4375H29.1291V29.4061C29.1291 29.1989 29.0467 29.0002 28.9002 28.8536C28.7537 28.7071 28.555 28.6248 28.3478 28.6248H23.66C23.4528 28.6248 23.2541 28.7071 23.1076 28.8536C22.9611 29.0002 22.8788 29.1989 22.8788 29.4061V36.4375H17.4097V23.9372H30.6916V22.3747H16.5113L26.0039 14.7808L35.4965 22.3747H35.3793C35.1721 22.3747 34.9734 22.457 34.8269 22.6035C34.6804 22.75 34.5981 22.9488 34.5981 23.156V27.8436H36.1606V23.9372H37.7232C37.8846 23.9363 38.0418 23.8854 38.1731 23.7915C38.3044 23.6976 38.4034 23.5654 38.4565 23.413C38.5096 23.2605 38.5142 23.0954 38.4696 22.9402C38.4251 22.7851 38.3335 22.6476 38.2076 22.5466ZM24.4413 30.1873H27.5665V36.4375H24.4413V30.1873Z" fill="white"/>
<path d="M33.0355 33.7734L32.0276 32.7655L30.926 33.8671L32.4886 35.4296C32.635 35.5752 32.833 35.6568 33.0394 35.6568C33.2458 35.6568 33.4438 35.5752 33.5902 35.4296L38.2779 30.742L37.1763 29.6405L33.0355 33.7734Z" fill="white"/>
</g>
<path d="M69.28 22.38C69.28 23.64 68.58 24.46 67.02 24.46H64.68V20.36H67.02C68.58 20.36 69.28 21.14 69.28 22.38ZM61.88 18.04V32H64.68V26.56H66L69.08 32H72.32L68.98 26.34C71.22 25.74 72.16 24.02 72.16 22.32C72.16 19.98 70.48 18.04 67.12 18.04H61.88ZM79.4525 23.04C80.8925 23.04 82.0525 23.96 82.0925 25.42H76.8325C77.0525 23.9 78.1125 23.04 79.4525 23.04ZM84.7125 28.52H81.6925C81.3325 29.26 80.6725 29.86 79.4725 29.86C78.0725 29.86 76.9525 28.94 76.8125 27.3H84.9125C84.9725 26.94 84.9925 26.58 84.9925 26.22C84.9925 22.92 82.7325 20.74 79.5325 20.74C76.2525 20.74 73.9725 22.96 73.9725 26.46C73.9725 29.94 76.3125 32.18 79.5325 32.18C82.2725 32.18 84.1125 30.56 84.7125 28.52ZM94.4763 20.92H86.4363V23.22H91.2563L86.4163 29.74V32H94.5363V29.7H89.5963L94.4763 23.18V20.92ZM96.7042 32H99.5042V20.92H96.7042V32ZM98.1242 19.6C99.1042 19.6 99.8442 18.88 99.8442 17.96C99.8442 17.04 99.1042 16.32 98.1242 16.32C97.1242 16.32 96.4042 17.04 96.4042 17.96C96.4042 18.88 97.1242 19.6 98.1242 19.6ZM102.271 32H105.071V17.2H102.271V32ZM107.837 32H110.637V17.2H107.837V32ZM112.683 26.42C112.683 29.88 114.923 32.18 117.723 32.18C119.483 32.18 120.743 31.34 121.403 30.38V32H124.223V20.92H121.403V22.5C120.743 21.58 119.523 20.74 117.743 20.74C114.923 20.74 112.683 22.96 112.683 26.42ZM121.403 26.46C121.403 28.56 120.003 29.72 118.463 29.72C116.963 29.72 115.543 28.52 115.543 26.42C115.543 24.32 116.963 23.2 118.463 23.2C120.003 23.2 121.403 24.36 121.403 26.46Z" fill="#1E1E1E"/>
<defs>
<clipPath id="clip0_181_2127">
<rect width="50" height="50" fill="white" transform="translate(0.5)"/>
</clipPath>
</defs>
</svg>
