<svg width="41" height="43" viewBox="0 0 41 43" fill="none" xmlns="http://www.w3.org/2000/svg">
<path d="M39.3773 17.4143L21.6462 1.10171C21.0698 0.571397 20.3107 0.284401 19.5277 0.300708C18.7446 0.317014 17.9981 0.635361 17.4443 1.18921L1.13686 17.4967L0.299988 18.3335V42.3741H16.0143V27.3741H24.5857V42.3741H40.3V18.2632L39.3773 17.4143ZM19.5891 3.15724C19.6143 3.15724 19.5987 3.16269 19.5879 3.17332C19.5768 3.16269 19.5639 3.15724 19.5891 3.15724ZM37.4428 39.517H27.4428V27.3741C27.4428 26.6164 27.1418 25.8896 26.606 25.3538C26.0702 24.818 25.3435 24.517 24.5857 24.517H16.0143C15.2565 24.517 14.5298 24.818 13.994 25.3538C13.4582 25.8896 13.1571 26.6164 13.1571 27.3741V39.517H3.15713L3.15713 19.517L19.5891 3.20948L19.5912 3.20635L37.4428 19.517V39.517Z" fill="white" stroke="white" stroke-width="0.6"/>
</svg>
