<svg width="41" height="41" viewBox="0 0 41 41" fill="none" xmlns="http://www.w3.org/2000/svg">
<path d="M38.9332 32.2763L32.1763 25.5193L26.9789 23.3721C28.7095 20.9111 29.6366 17.9752 29.6333 14.9667C29.6333 6.87945 23.0539 0.300049 14.9666 0.300049C6.87941 0.300049 0.300003 6.87945 0.300003 14.9667C0.300003 23.0539 6.87941 29.6333 14.9666 29.6333C18.0013 29.6368 20.9615 28.6936 23.4349 26.9352L25.5765 32.1186L32.3333 38.8759C32.7666 39.3092 33.281 39.653 33.8472 39.8875C34.4134 40.1221 35.0203 40.2428 35.6331 40.2428C36.246 40.2429 36.8528 40.1222 37.419 39.8877C37.9852 39.6531 38.4997 39.3094 38.933 38.8761C39.3664 38.4427 39.7102 37.9283 39.9447 37.3621C40.1793 36.7959 40.3 36.1891 40.3 35.5762C40.3 34.9634 40.1793 34.3565 39.9448 33.7903C39.7103 33.2241 39.3666 32.7097 38.9332 32.2763ZM2.96666 14.9667C2.96666 8.35003 8.34998 2.96671 14.9666 2.96671C21.5833 2.96671 26.9666 8.35003 26.9666 14.9667C26.9666 21.5833 21.5833 26.9667 14.9666 26.9667C8.34998 26.9667 2.96666 21.5833 2.96666 14.9667ZM37.0475 36.9903C36.6721 37.3648 36.1635 37.5752 35.6333 37.5752C35.103 37.5752 34.5944 37.3648 34.219 36.9903L27.838 30.6093L25.8469 25.7897L30.6666 27.7809L37.0477 34.1619C37.4221 34.5373 37.6324 35.0459 37.6324 35.5761C37.6324 36.1064 37.422 36.6149 37.0475 36.9903Z" fill="white" stroke="white" stroke-width="0.6"/>
</svg>
