<svg width="14" height="23" viewBox="0 0 14 23" fill="none" xmlns="http://www.w3.org/2000/svg">
<path d="M8.51465 0.5V3.52246H11.9658V6.14648H4.96973C4.48027 6.14654 4.01115 6.34142 3.66504 6.6875C3.31895 7.03359 3.12411 7.50275 3.12402 7.99219C3.12402 8.48174 3.31887 8.95169 3.66504 9.29785C4.01114 9.64383 4.48035 9.83784 4.96973 9.83789H9.03027C10.2151 9.83922 11.3516 10.3107 12.1895 11.1484C13.0273 11.9863 13.4986 13.1227 13.5 14.3076V14.4893C13.4987 15.6742 13.0273 16.8106 12.1895 17.6484C11.4039 18.4339 10.3562 18.8972 9.25195 18.9531L9.03027 18.959H8.51465V21.8008H5.89062V18.959H1.6582V16.335H9.0293C9.51883 16.3344 9.98881 16.1391 10.335 15.793C10.6809 15.4469 10.8754 14.9776 10.876 14.4883V14.3086L10.8672 14.126C10.8248 13.7037 10.6376 13.3067 10.335 13.0039C10.0321 12.701 9.63444 12.514 9.21191 12.4717L9.0293 12.4629H4.96973C3.78441 12.4628 2.64777 11.9914 1.80957 11.1533C0.971298 10.315 0.5 9.17768 0.5 7.99219C0.500084 6.80681 0.971373 5.67023 1.80957 4.83203C2.64779 3.99384 3.78433 3.52251 4.96973 3.52246H5.89062V0.5H8.51465Z" fill="#00CE3A" stroke="#00CE3A"/>
</svg>
