<svg width="206" height="207" viewBox="0 0 206 207" fill="none" xmlns="http://www.w3.org/2000/svg">
<path d="M93.2142 196.199C93.3012 195.098 94.001 194.367 95.4205 194.479L97.4303 194.638L97.1366 198.355L95.1268 198.196C93.7073 198.084 93.126 197.315 93.2142 196.199ZM98.8377 199.982L99.7138 188.896L97.8954 188.753L97.545 193.187L96.1573 193.077L93.9557 188.441L91.7865 188.27L94.1669 193.08C92.2641 193.395 91.4514 194.744 91.348 196.051C91.2056 197.854 92.3778 199.471 95.0096 199.679L98.8377 199.982Z" fill="#4361EE"/>
<path d="M81.5748 193.803C80.2495 193.498 79.3987 192.415 79.6726 191.083L84.4282 192.178C83.9288 193.491 82.7754 194.08 81.5748 193.803ZM78.6291 188.199L80.5469 188.641C81.0287 188.046 81.7588 187.656 82.8503 187.907C84.16 188.208 84.976 189.299 84.7741 190.747L78.2098 189.236C78.0948 189.521 78.0146 189.798 77.9464 190.094C77.3649 192.62 78.7043 194.718 81.1522 195.282C83.6937 195.867 85.8385 194.538 86.4596 191.841C87.0806 189.144 85.6584 186.977 83.1949 186.41C81.09 185.925 79.457 186.814 78.6291 188.199Z" fill="#4361EE"/>
<path d="M74.1077 188.646C75.1007 186.113 74.0712 183.699 71.9411 182.863C70.5707 182.326 69.3306 182.596 68.5347 183.092L69.0137 181.87L67.3007 181.198L64.0821 189.406L65.7951 190.078L66.2624 188.886C66.506 189.755 67.2023 190.784 68.5876 191.327C70.7474 192.174 73.1147 191.178 74.1077 188.646ZM67.4015 185.981C68.0966 184.209 69.6945 183.684 70.9755 184.186C72.2417 184.683 73.06 186.19 72.3649 187.962C71.6698 189.735 70.0745 190.209 68.8084 189.713C67.5274 189.21 66.7122 187.739 67.4015 185.981Z" fill="#4361EE"/>
<path d="M63.2427 179.031L61.6397 178.161L55.9906 188.566L57.5936 189.436L63.2427 179.031Z" fill="#4361EE"/>
<path d="M37.8917 174.716L42.5645 178.705L49.7949 170.236L45.122 166.247L44.1559 167.378L47.4415 170.183L45.2288 172.775L42.3082 170.282L41.3421 171.414L44.2626 173.907L42.1434 176.389L38.8578 173.585L37.8917 174.716Z" fill="#4361EE"/>
<path d="M35.2389 159.338C32.9325 161.535 36.9931 164.577 35.6708 165.763C35.2301 166.158 34.5905 166.044 33.9389 165.317C33.2766 164.579 33.2745 163.786 33.8035 163.225L32.5858 161.867C31.3396 163.114 31.4174 164.806 32.7526 166.295C34.1412 167.844 35.8629 168.062 36.9112 167.122C39.3174 164.964 35.1607 161.815 36.4472 160.661C36.8998 160.255 37.6072 160.373 38.3122 161.159C38.9852 161.91 39.0038 162.817 38.5105 163.345L39.7709 164.751C40.9087 163.623 40.8444 161.682 39.4344 160.11C38.0458 158.561 36.3467 158.344 35.2389 159.338Z" fill="#4361EE"/>
<path d="M32.0445 155.013C33.5111 153.983 33.4872 152.807 32.5863 151.524L31.7589 150.346L30.5148 151.219L31.1584 152.136C31.5997 152.764 31.5241 153.13 30.9872 153.507L26.9933 156.311L25.7613 154.556L24.5435 155.411L25.7754 157.166L23.9814 158.425L25.0387 159.931L26.8327 158.672L27.4303 159.523L28.6481 158.668L28.0505 157.817L32.0445 155.013Z" fill="#4361EE"/>
<path d="M25.716 149.102C28.124 147.837 28.9255 145.337 27.8614 143.312C27.1769 142.008 26.0625 141.401 25.1364 141.255L26.2979 140.645L25.4421 139.016L17.6375 143.116L18.4932 144.745L19.6264 144.149C19.242 144.966 19.095 146.2 19.787 147.517C20.8659 149.571 23.308 150.366 25.716 149.102ZM22.3885 142.698C24.074 141.813 25.6258 142.462 26.2657 143.68C26.8982 144.884 26.531 146.559 24.8454 147.444C23.1598 148.33 21.6432 147.644 21.0107 146.441C20.3708 145.222 20.7171 143.576 22.3885 142.698Z" fill="#4361EE"/>
<path d="M21.3981 135.322C23.0781 134.699 23.3537 133.555 22.8082 132.085L22.3073 130.735L20.8822 131.264L21.2718 132.314C21.539 133.034 21.373 133.369 20.758 133.597L16.1828 135.294L15.437 133.284L14.0419 133.802L14.7877 135.812L12.7326 136.575L13.3727 138.3L15.4278 137.537L15.7896 138.512L17.1846 137.995L16.8229 137.02L21.3981 135.322Z" fill="#4361EE"/>
<path d="M12.9088 124.475C12.5966 123.151 13.1914 121.909 14.5077 121.566L15.6281 126.315C14.2292 126.448 13.1916 125.674 12.9088 124.475ZM16.6329 119.355L17.0847 121.27C17.8315 121.439 18.5042 121.922 18.7613 123.012C19.0699 124.32 18.4521 125.534 17.0644 125.993L15.518 119.437C15.2111 119.46 14.9271 119.511 14.6312 119.58C12.1084 120.175 10.8188 122.304 11.3955 124.749C11.9942 127.288 14.1342 128.624 16.8282 127.989C19.5223 127.353 20.8367 125.12 20.2563 122.659C19.7604 120.557 18.2417 119.485 16.6329 119.355Z" fill="#4361EE"/>
<path d="M14.9012 98.9158C10.8373 98.8909 12.3691 104.788 9.85711 104.773C8.78513 104.766 8.27816 103.947 8.31664 102.891C8.35572 101.74 9.04774 101.088 9.80012 101.029L9.8125 99.0126C7.90755 99.1609 6.77833 100.658 6.76526 102.786C6.7513 105.058 7.95775 106.617 9.90971 106.629C14.0056 106.654 12.2979 100.74 14.9859 100.756C15.9299 100.762 16.6134 101.486 16.6056 102.766C16.5978 104.03 15.8579 104.666 14.9454 104.74L14.9334 106.692C16.9014 106.704 18.1279 105 18.1415 102.776C18.1568 100.296 16.5652 98.926 14.9012 98.9158Z" fill="#4361EE"/>
<path d="M18.5736 94.2489L18.8011 92.4391L10.0539 91.3397L9.82641 93.1494L18.5736 94.2489ZM8.78326 92.083C8.86308 91.448 8.41893 90.8762 7.76805 90.7943C7.11717 90.7125 6.54531 91.1567 6.4655 91.7917C6.38368 92.4426 6.82784 93.0144 7.47871 93.0962C8.12959 93.178 8.70145 92.7339 8.78326 92.083Z" fill="#4361EE"/>
<path d="M21.3296 80.3047L21.7746 78.5523L16.7346 77.2724C14.3464 76.666 12.7083 77.8512 12.2003 79.8517C11.9404 80.8753 12.1188 81.9276 12.671 82.6786L11.694 82.4305L11.245 84.1984L19.7898 86.3683L20.2388 84.6004L15.4624 83.3874C13.8961 82.9897 13.3063 81.932 13.6371 80.6293C13.964 79.3422 14.987 78.694 16.5532 79.0918L21.3296 80.3047Z" fill="#4361EE"/>
<path d="M19.1275 72.8071C21.6812 73.8751 24.0258 72.9133 25.0012 70.5811C25.8346 68.5883 25.2708 66.8264 23.868 65.702L23.1087 67.5177C23.8204 68.1795 24.004 68.9847 23.5842 69.9884C23.0162 71.3465 21.6359 71.8271 19.8498 71.0801C18.0785 70.3393 17.4513 69.0191 18.0192 67.6611C18.439 66.6573 19.2125 66.2177 20.1122 66.2644L20.8715 64.4488C18.9678 64.1903 17.4356 65.0757 16.6022 67.0684C15.6268 69.4007 16.5886 71.7453 19.1275 72.8071Z" fill="#4361EE"/>
<path d="M24.0409 55.95C24.7387 54.7827 26.0304 54.3059 27.2141 54.9762L24.7102 59.1649C23.6139 58.2859 23.4088 57.0075 24.0409 55.95ZM30.279 54.8697L29.2692 56.5589C29.6873 57.2003 29.8341 58.0151 29.2594 58.9764C28.5698 60.13 27.2808 60.5711 25.9654 59.9339L29.4217 54.1522C29.1854 53.955 28.9464 53.7935 28.6854 53.6375C26.4607 52.3076 24.0525 52.9371 22.7636 55.0933C21.4254 57.3318 22.0303 59.7812 24.4062 61.2014C26.782 62.6217 29.2807 61.9344 30.5778 59.7645C31.6861 57.9105 31.3429 56.0836 30.279 54.8697Z" fill="#4361EE"/>
<path d="M39.877 46.7199L45.3268 41.1732L44.2425 40.1079L40.6879 43.7259C40.7786 41.1907 41.2563 37.6225 39.2362 35.6377C37.7411 34.1688 35.7834 34.1295 34.1238 35.8186C32.6773 37.2909 32.4123 39.3184 34.1707 41.1358L35.4042 39.8804C34.5019 38.9266 34.345 37.8079 35.2421 36.8949C36.1952 35.9248 37.1588 36.1312 38.0261 36.9835C39.6582 38.587 39.1351 42.1329 38.9297 45.7892L39.877 46.7199Z" fill="#4361EE"/>
<path d="M45.2352 33.592C47.2793 36.2989 49.537 37.8019 52.1418 35.8349C54.7465 33.8679 53.9188 31.285 51.8747 28.5781C49.8692 25.9223 47.6114 24.4193 45.0067 26.3863C42.4019 28.3532 43.2296 30.9361 45.2352 33.592ZM50.4447 29.658C51.8235 31.4839 52.8372 33.2246 51.139 34.507C49.4408 35.7894 48.044 34.3379 46.6652 32.5121C45.3539 30.7756 44.3112 28.9966 46.0094 27.7142C47.7076 26.4318 49.1333 27.9215 50.4447 29.658Z" fill="#4361EE"/>
<path d="M59.2283 30.8532L66.0548 27.1296L65.3269 25.7952L60.8742 28.224C61.6978 25.8246 63.1918 22.5492 61.8357 20.063C60.832 18.223 58.9702 17.6165 56.8914 18.7504C55.0794 19.7388 54.2366 21.6018 55.391 23.8518L56.9361 23.009C56.35 21.8342 56.5249 20.7182 57.6486 20.1052C58.8425 19.454 59.7045 19.9315 60.2868 20.9991C61.3824 23.0077 59.8514 26.2486 58.5924 29.6874L59.2283 30.8532Z" fill="#4361EE"/>
<path d="M70.0649 25.3757L77.3514 22.6606L76.8207 21.2362L72.0679 23.0072C73.2243 20.7493 75.1689 17.7197 74.18 15.0659C73.4482 13.1018 71.6915 12.2368 69.4726 13.0636C67.5385 13.7843 66.4394 15.5086 67.2621 17.8998L68.9113 17.2853C68.4982 16.0391 68.83 14.9593 70.0295 14.5123C71.3039 14.0374 72.0892 14.6327 72.5137 15.7722C73.3126 17.9162 71.3364 20.9064 69.6012 24.1313L70.0649 25.3757Z" fill="#4361EE"/>
<path d="M89.492 14.9366L96.0216 14.1566L95.8394 12.6314L89.3098 13.4114L89.492 14.9366Z" fill="#4361EE"/>
<path d="M116.854 12.2094C116.717 13.3049 115.986 14.004 114.573 13.8284L112.572 13.5797L113.032 9.8802L115.032 10.1288C116.445 10.3045 116.992 11.0979 116.854 12.2094ZM111.405 8.1786L110.034 19.2137L111.844 19.4387L112.392 15.0246L113.774 15.1963L115.766 19.9261L117.925 20.1945L115.762 15.2822C117.677 15.0527 118.55 13.7422 118.711 12.4402C118.934 10.6461 117.836 8.97781 115.216 8.65221L111.405 8.1786Z" fill="#4361EE"/>
<path d="M128.374 15.124C129.684 15.4882 130.486 16.6077 130.153 17.9266L125.451 16.6198C126.008 15.3301 127.187 14.7941 128.374 15.124ZM131.066 20.8541L129.17 20.3271C128.662 20.9 127.915 21.257 126.836 20.9571C125.541 20.5972 124.775 19.4709 125.041 18.0338L131.531 19.8375C131.659 19.5575 131.751 19.2843 131.833 18.9914C132.527 16.494 131.283 14.3381 128.862 13.6655C126.35 12.9671 124.148 14.1984 123.406 16.8654C122.665 19.5323 123.989 21.7601 126.425 22.437C128.506 23.0154 130.177 22.2012 131.066 20.8541Z" fill="#4361EE"/>
<path d="M135.603 20.6105C134.497 23.0958 135.418 25.554 137.508 26.4838C138.853 27.0821 140.104 26.868 140.922 26.4085L140.388 27.6072L142.07 28.355L145.652 20.2999L143.971 19.5521L143.451 20.7216C143.247 19.8427 142.597 18.7833 141.237 18.1786C139.118 17.2357 136.708 18.1253 135.603 20.6105ZM142.183 23.5724C141.409 25.312 139.789 25.7648 138.532 25.2056C137.29 24.6529 136.539 23.111 137.313 21.3713C138.087 19.6316 139.702 19.2292 140.945 19.7819C142.202 20.3411 142.95 21.8473 142.183 23.5724Z" fill="#4361EE"/>
<path d="M146.026 30.702L147.589 31.6431L153.698 21.501L152.136 20.5599L146.026 30.702Z" fill="#4361EE"/>
<path d="M171.159 36.1472L166.669 31.9528L159.067 40.0902L163.557 44.2845L164.572 43.1972L161.416 40.248L163.742 37.7577L166.548 40.3792L167.564 39.2919L164.758 36.6704L166.986 34.2853L170.143 37.2345L171.159 36.1472Z" fill="#4361EE"/>
<path d="M173.121 51.629C175.523 49.5373 171.603 46.3162 172.977 45.1909C173.435 44.8158 174.069 44.9585 174.687 45.7136C175.316 46.481 175.282 47.2736 174.729 47.8097L175.884 49.2208C177.185 48.0314 177.183 46.3371 175.916 44.7898C174.598 43.1806 172.888 42.8854 171.799 43.7775C169.298 45.8254 173.31 49.1579 171.973 50.2528C171.502 50.6381 170.801 50.4887 170.132 49.6717C169.493 48.8919 169.515 47.9845 170.032 47.4788L168.836 46.0181C167.648 47.0938 167.626 49.0358 168.964 50.6697C170.282 52.2789 171.969 52.5719 173.121 51.629Z" fill="#4361EE"/>
<path d="M176.118 56.0926C174.607 57.0555 174.578 58.2312 175.421 59.5535L176.195 60.7679L177.477 59.9511L176.875 59.0066C176.462 58.3589 176.554 57.9968 177.107 57.6443L181.223 55.0219L182.375 56.83L183.63 56.0304L182.477 54.2223L184.326 53.0443L183.337 51.4926L181.489 52.6705L180.93 51.7935L179.675 52.5931L180.234 53.4701L176.118 56.0926Z" fill="#4361EE"/>
<path d="M182.176 62.2813C179.714 63.4372 178.801 65.8983 179.773 67.9694C180.399 69.3019 181.485 69.9586 182.403 70.146L181.216 70.7035L181.998 72.3691L189.978 68.6227L189.196 66.9571L188.038 67.501C188.458 66.7026 188.66 65.4765 188.028 64.1295C187.042 62.0295 184.638 61.1254 182.176 62.2813ZM185.213 68.8269C183.49 69.636 181.969 68.9184 181.384 67.6729C180.806 66.4418 181.248 64.785 182.971 63.9759C184.695 63.1667 186.179 63.9192 186.757 65.1503C187.342 66.3959 186.922 68.0246 185.213 68.8269Z" fill="#4361EE"/>
<path d="M185.872 76.2404C184.166 76.7879 183.84 77.9177 184.319 79.4107L184.759 80.7818L186.206 80.3174L185.864 79.251C185.629 78.5197 185.81 78.1928 186.435 77.9924L191.081 76.5013L191.736 78.5428L193.153 78.0881L192.498 76.0466L194.585 75.3769L194.023 73.6249L191.936 74.2946L191.618 73.3044L190.201 73.759L190.519 74.7493L185.872 76.2404Z" fill="#4361EE"/>
<path d="M193.868 87.4569C194.12 88.7932 193.47 90.0071 192.14 90.2912L191.233 85.4962C192.637 85.4262 193.639 86.2464 193.868 87.4569ZM189.918 92.4048L189.552 90.4711C188.814 90.2687 188.164 89.7566 187.955 88.6561C187.706 87.3355 188.377 86.1502 189.784 85.7539L191.035 92.3726C191.343 92.3633 191.629 92.3255 191.928 92.2691C194.475 91.7875 195.858 89.7184 195.392 87.2502C194.907 84.6876 192.829 83.2567 190.109 83.7709C187.39 84.2852 185.977 86.4575 186.446 88.9415C186.847 91.0639 188.317 92.2028 189.918 92.4048Z" fill="#4361EE"/>
<path d="M190.733 112.901C194.792 113.108 193.525 107.148 196.034 107.275C197.105 107.33 197.575 108.171 197.489 109.224C197.398 110.373 196.678 110.993 195.924 111.019L195.821 113.032C197.731 112.969 198.926 111.524 199.034 109.399C199.15 107.13 198.014 105.518 196.065 105.419C191.974 105.21 193.415 111.195 190.731 111.058C189.788 111.01 189.138 110.256 189.203 108.978C189.267 107.716 190.035 107.114 190.95 107.08L191.049 105.131C189.083 105.031 187.782 106.679 187.669 108.9C187.542 111.376 189.071 112.816 190.733 112.901Z" fill="#4361EE"/>
<path d="M186.855 117.399L186.547 119.197L195.236 120.687L195.544 118.889L186.855 117.399ZM196.539 120.001C196.431 120.632 196.849 121.223 197.495 121.334C198.142 121.445 198.733 121.026 198.841 120.396C198.952 119.749 198.534 119.158 197.887 119.047C197.241 118.936 196.65 119.354 196.539 120.001Z" fill="#4361EE"/>
<path d="M183.478 131.206L182.955 132.936L187.933 134.441C190.291 135.153 191.981 134.043 192.578 132.067C192.883 131.056 192.752 129.997 192.234 129.222L193.199 129.513L193.727 127.767L185.288 125.217L184.76 126.963L189.477 128.389C191.024 128.856 191.566 129.939 191.177 131.226C190.793 132.497 189.742 133.099 188.195 132.631L183.478 131.206Z" fill="#4361EE"/>
<path d="M185.342 138.794C182.839 137.613 180.453 138.469 179.375 140.755C178.453 142.708 178.937 144.494 180.288 145.68L181.128 143.9C180.447 143.207 180.299 142.394 180.764 141.411C181.392 140.079 182.792 139.661 184.543 140.487C186.28 141.306 186.847 142.653 186.219 143.985C185.754 144.969 184.962 145.373 184.065 145.286L183.226 147.066C185.116 147.409 186.686 146.594 187.608 144.64C188.687 142.354 187.831 139.969 185.342 138.794Z" fill="#4361EE"/>
<path d="M179.679 155.415C178.93 156.549 177.618 156.968 176.465 156.245L179.154 152.173C180.21 153.1 180.358 154.386 179.679 155.415ZM173.399 156.214L174.483 154.572C174.094 153.913 173.984 153.092 174.601 152.158C175.342 151.036 176.649 150.653 177.935 151.348L174.223 156.97C174.45 157.177 174.682 157.349 174.936 157.517C177.099 158.945 179.533 158.424 180.917 156.328C182.354 154.151 181.859 151.677 179.549 150.152C177.239 148.627 174.712 149.202 173.319 151.311C172.129 153.114 172.39 154.954 173.399 156.214Z" fill="#4361EE"/>
<path d="M163.446 163.926L157.753 169.223L158.788 170.336L162.501 166.881C162.297 169.41 161.66 172.953 163.59 175.026C165.017 176.56 166.971 176.687 168.705 175.074C170.216 173.668 170.571 171.654 168.896 169.76L167.608 170.959C168.466 171.952 168.573 173.077 167.636 173.949C166.64 174.875 165.687 174.626 164.859 173.736C163.3 172.061 163.981 168.542 164.35 164.898L163.446 163.926Z" fill="#4361EE"/>
<path d="M157.505 176.801C155.584 174.005 153.396 172.403 150.706 174.251C148.016 176.1 148.727 178.717 150.648 181.513C152.532 184.256 154.721 185.858 157.411 184.01C160.101 182.161 159.39 179.544 157.505 176.801ZM152.125 180.498C150.829 178.612 149.894 176.828 151.648 175.623C153.402 174.418 154.732 175.93 156.028 177.816C157.26 179.609 158.222 181.433 156.468 182.638C154.714 183.843 153.357 182.291 152.125 180.498Z" fill="#4361EE"/>
<path d="M143.403 178.911L136.417 182.325L137.084 183.691L141.641 181.464C140.711 183.824 139.072 187.029 140.316 189.573C141.236 191.457 143.069 192.146 145.196 191.106C147.051 190.2 147.976 188.376 146.923 186.077L145.342 186.85C145.875 188.05 145.65 189.157 144.5 189.719C143.278 190.316 142.439 189.8 141.905 188.708C140.9 186.652 142.575 183.483 143.986 180.104L143.403 178.911Z" fill="#4361EE"/>
<path d="M132.332 183.898L124.932 186.284L125.398 187.731L130.225 186.174C128.969 188.378 126.891 191.318 127.76 194.013C128.403 196.008 130.119 196.951 132.373 196.224C134.337 195.591 135.512 193.917 134.798 191.492L133.123 192.032C133.479 193.295 133.1 194.359 131.881 194.752C130.587 195.169 129.829 194.539 129.456 193.382C128.754 191.204 130.862 188.306 132.74 185.162L132.332 183.898Z" fill="#4361EE"/>
<path d="M112.457 193.457L105.899 193.944L106.013 195.475L112.571 194.988L112.457 193.457Z" fill="#4361EE"/>
</svg>
