<svg width="40" height="41" viewBox="0 0 40 41" fill="none" xmlns="http://www.w3.org/2000/svg">
<path d="M30.5309 39.5315H19.1276C18.3736 39.5315 17.7482 38.9061 17.7482 38.152C17.7482 37.398 18.3736 36.7726 19.1276 36.7726H30.5309C32.4989 36.7726 34.4301 35.1355 34.7612 33.1859L37.2073 18.5458C37.428 17.2215 36.6925 15.3269 35.6626 14.4993L22.9165 4.31005C21.4451 3.13294 18.9989 3.13293 17.5459 4.29164L4.80004 14.4993C3.75168 15.3453 3.03438 17.2215 3.25508 18.5458L3.77007 21.6539C3.89882 22.408 3.38385 23.1253 2.62976 23.2357C1.87568 23.3828 1.17678 22.8494 1.04804 22.0953L0.533052 19.0056C0.146812 16.725 1.25037 13.8005 3.07122 12.3475L15.8171 2.13967C18.2816 0.153291 22.1624 0.171701 24.6454 2.15808L37.3913 12.3475C39.1937 13.8005 40.2973 16.725 39.9294 19.0056L37.4832 33.6457C36.9314 36.9012 33.8231 39.5315 30.5309 39.5315Z" fill="#4361EE"/>
<path d="M7.35738 39.8811C6.60329 39.8811 5.99634 39.2741 5.97795 38.5384C5.92277 36.0554 4.28587 34.4185 1.80291 34.3633C1.04882 34.345 0.441854 33.7196 0.460246 32.9471C0.478638 32.193 1.08559 31.6045 1.83967 31.6045H1.87644C5.8308 31.6965 8.66324 34.5105 8.7368 38.4648C8.7552 39.2189 8.14823 39.8627 7.39415 39.8811C7.37575 39.8811 7.37577 39.8811 7.35738 39.8811Z" fill="#4361EE"/>
<path d="M12.8751 39.8811C12.121 39.8811 11.4956 39.2741 11.4956 38.52C11.4772 37.3061 11.2749 36.1474 10.9071 35.0623C9.96906 32.377 7.9643 30.3904 5.27901 29.434C4.19386 29.0478 3.03515 28.8456 1.82125 28.8456C1.06716 28.8456 0.441842 28.2203 0.460235 27.4478C0.460235 26.6937 1.08557 26.0868 1.83966 26.0868H1.85805C3.38462 26.1052 4.8376 26.3627 6.19863 26.8409C9.67479 28.0732 12.2681 30.6665 13.5004 34.1426C13.9786 35.5037 14.2361 36.9751 14.2545 38.4832C14.2545 39.2557 13.6476 39.8811 12.8751 39.8811Z" fill="#4361EE"/>
<path d="M1.83924 40.3409C0.809264 40.3409 0 39.5133 0 38.5017C0 37.4901 0.827656 36.6625 1.83924 36.6625C2.85082 36.6625 3.67847 37.4901 3.67847 38.5017C3.67847 39.5133 2.86921 40.3409 1.83924 40.3409Z" fill="#4361EE"/>
</svg>
