<svg width="44" height="49" viewBox="0 0 44 49" fill="none" xmlns="http://www.w3.org/2000/svg">
<path d="M42 16.9711V32.0288C42 34.4945 40.6791 36.7839 38.5437 38.0388L25.4672 45.5897C23.3318 46.8225 20.6901 46.8225 18.5327 45.5897L5.45625 38.0388C3.32086 36.806 2 34.5165 2 32.0288V16.9711C2 14.5055 3.32086 12.2159 5.45625 10.9611L18.5327 3.4102C20.6681 2.17739 23.3098 2.17739 25.4672 3.4102L38.5437 10.9611C40.6791 12.2159 42 14.4835 42 16.9711Z" stroke="#4361EE" stroke-width="3" stroke-linecap="round" stroke-linejoin="round"/>
<path d="M22.011 22.2987C24.844 22.2987 27.1403 20.0021 27.1403 17.1693C27.1403 14.3364 24.844 12.04 22.011 12.04C19.1782 12.04 16.8817 14.3364 16.8817 17.1693C16.8817 20.0021 19.1782 22.2987 22.011 22.2987Z" stroke="#4361EE" stroke-width="3" stroke-linecap="round" stroke-linejoin="round"/>
<path d="M30.8167 34.759C30.8167 30.7964 26.8761 27.5823 22.0109 27.5823C17.1458 27.5823 13.2052 30.7964 13.2052 34.759" stroke="#4361EE" stroke-width="3" stroke-linecap="round" stroke-linejoin="round"/>
</svg>
